<svg xmlns="http://www.w3.org/2000/svg" viewBox="0 0 16 16" shape-rendering="crispEdges">
  <rect width="16" height="16" fill="none"/>
  <!-- ears -->
  <rect x="3" y="1" width="2" height="2" fill="#c7741d"/>
  <rect x="11" y="1" width="2" height="2" fill="#c7741d"/>
  <rect x="4" y="2" width="1" height="1" fill="#f4a641"/>
  <rect x="11" y="2" width="1" height="1" fill="#f4a641"/>
  <!-- head -->
  <rect x="3" y="3" width="10" height="7" fill="#f4a641"/>
  <rect x="4" y="4" width="8" height="5" fill="#f8b656"/>
  <!-- muzzle -->
  <rect x="5" y="7" width="6" height="3" fill="#ffe2b5"/>
  <!-- eyes -->
  <rect x="6" y="5" width="1" height="2" fill="#222"/>
  <rect x="9" y="5" width="1" height="2" fill="#222"/>
  <!-- nose -->
  <rect x="7" y="7" width="2" height="1" fill="#b44"/>
  <!-- body -->
  <rect x="4" y="10" width="8" height="4" fill="#f4a641"/>
  <rect x="5" y="11" width="6" height="2" fill="#f8b656"/>
  <!-- tail -->
  <rect x="12" y="11" width="2" height="2" fill="#f4a641"/>
  <rect x="13" y="10" width="1" height="1" fill="#f4a641"/>
  <rect x="13" y="12" width="1" height="1" fill="#f8b656"/>
  <!-- feet -->
  <rect x="5" y="14" width="2" height="1" fill="#c7741d"/>
  <rect x="9" y="14" width="2" height="1" fill="#c7741d"/>
</svg>
